<svg xmlns="http://www.w3.org/2000/svg" xmlns:xlink="http://www.w3.org/1999/xlink" width="1512" zoomAndPan="magnify" viewBox="0 0 1134 1133.999944" height="1512" preserveAspectRatio="xMidYMid meet" version="1.0"><defs><clipPath id="5b5e5db994"><path d="M 2.398438 1.398438 L 937 1.398438 L 937 942.769531 L 2.398438 942.769531 Z M 2.398438 1.398438 " clip-rule="nonzero"/></clipPath><clipPath id="061d28a46a"><rect x="0" width="939" y="0" height="944"/></clipPath></defs><g transform="matrix(1, 0, 0, 1, 111, 112)"><g clip-path="url(#061d28a46a)"><g clip-path="url(#5b5e5db994)"><path fill="#3a5635" d="M 345.214844 43.714844 L 321.855469 94.746094 L 381.503906 232.777344 L 423.476562 200.054688 C 423.964844 199.601562 424.492188 199.1875 425.054688 198.824219 L 450.433594 179.035156 C 424.707031 159.160156 402.628906 136.835938 384.214844 112.09375 C 368.542969 91.03125 355.542969 68.234375 345.214844 43.714844 Z M 210.464844 65.125 C 205.386719 61.976562 200.761719 58.316406 196.601562 54.144531 C 192.429688 49.953125 188.753906 45.273438 185.585938 40.109375 C 182.429688 45.226562 178.75 49.878906 174.558594 54.058594 C 170.351562 58.253906 165.640625 61.945312 160.425781 65.128906 C 165.640625 68.3125 170.351562 72 174.558594 76.199219 C 178.75 80.378906 182.429688 85.027344 185.585938 90.144531 C 188.753906 84.976562 192.429688 80.296875 196.601562 76.105469 C 200.765625 71.929688 205.386719 68.269531 210.464844 65.125 Z M 212.839844 38 C 218.761719 43.9375 226.238281 48.464844 235.25 51.5625 C 238.121094 52.550781 240.550781 54.40625 242.261719 56.820312 C 243.976562 59.230469 244.941406 62.113281 244.941406 65.125 C 244.941406 68.15625 243.972656 71.023438 242.261719 73.429688 C 240.542969 75.851562 238.121094 77.703125 235.25 78.6875 C 226.238281 81.785156 218.761719 86.3125 212.839844 92.25 C 206.859375 98.253906 202.269531 105.84375 199.089844 114.996094 C 198.082031 117.894531 196.234375 120.289062 193.871094 121.964844 L 193.859375 121.945312 L 193.828125 121.964844 C 192.035156 123.230469 189.972656 124.082031 187.769531 124.421875 C 187.054688 124.5625 186.320312 124.632812 185.566406 124.632812 C 182.519531 124.632812 179.652344 123.660156 177.265625 121.957031 C 174.851562 120.226562 172.996094 117.804688 172.011719 114.945312 L 172.027344 114.941406 L 172.011719 114.898438 C 168.925781 105.882812 164.390625 98.386719 158.414062 92.433594 C 152.480469 86.519531 145.027344 81.972656 136.082031 78.804688 L 135.566406 78.640625 C 132.691406 77.632812 130.296875 75.796875 128.601562 73.425781 L 128.621094 73.414062 L 128.601562 73.386719 C 126.898438 70.980469 125.925781 68.109375 125.925781 65.125 C 125.925781 62.101562 126.878906 59.234375 128.601562 56.828125 C 130.3125 54.414062 132.722656 52.5625 135.609375 51.570312 L 135.621094 51.613281 C 144.773438 48.441406 152.378906 43.839844 158.414062 37.824219 C 164.289062 31.964844 168.777344 24.621094 171.859375 15.796875 L 172.011719 15.308594 C 172.992188 12.457031 174.835938 10.035156 177.265625 8.296875 C 179.65625 6.601562 182.515625 5.617188 185.566406 5.617188 C 188.589844 5.617188 191.4375 6.558594 193.828125 8.242188 L 193.824219 8.253906 L 193.871094 8.289062 C 196.238281 9.96875 198.085938 12.375 199.089844 15.253906 C 202.269531 24.410156 206.859375 31.996094 212.839844 38 Z M 167.054688 225.25 C 154.15625 219.050781 142.867188 211.09375 133.191406 201.390625 C 130.0625 198.25 127.109375 194.929688 124.335938 191.429688 L 123.808594 190.765625 C 118.21875 183.617188 113.367188 175.738281 109.25 167.128906 C 103.039062 180.132812 95.050781 191.496094 85.304688 201.214844 C 75.542969 210.945312 64.050781 218.957031 50.835938 225.25 C 64.050781 231.542969 75.539062 239.558594 85.304688 249.285156 C 95.050781 259 103.035156 270.359375 109.25 283.363281 C 115.527344 270.246094 123.503906 258.828125 133.191406 249.105469 C 142.867188 239.402344 154.15625 231.445312 167.054688 225.25 Z M 151.636719 187.386719 L 303.679688 110.3125 L 366.386719 255.417969 C 368.886719 261.214844 375.617188 263.882812 381.410156 261.382812 C 382.324219 260.988281 383.164062 260.488281 383.917969 259.902344 L 383.921875 259.90625 L 419.8125 231.921875 L 419.8125 918.425781 C 387.53125 916.660156 356.488281 912.582031 328.078125 906.128906 C 291.292969 897.773438 259.066406 885.453125 234.527344 869.054688 C 238.863281 819.945312 241.800781 757.898438 241.535156 692.246094 C 241.300781 635.417969 238.675781 575.96875 232.496094 519.953125 C 234.585938 500.074219 236.234375 484.027344 237.578125 469.957031 L 237.847656 467.105469 C 238.960938 469.570312 240.703125 471.664062 242.878906 473.214844 L 242.863281 473.238281 C 245.402344 475.0625 248.464844 476.089844 251.75 476.089844 C 252.40625 476.089844 253.050781 476.035156 253.679688 475.925781 C 256.21875 475.613281 258.574219 474.679688 260.589844 473.25 C 260.996094 472.957031 261.375 472.648438 261.730469 472.316406 C 263.707031 470.605469 265.246094 468.394531 266.144531 465.828125 C 270.542969 453.171875 276.910156 442.664062 285.226562 434.3125 C 293.484375 426.027344 303.859375 419.738281 316.328125 415.453125 C 319.414062 414.394531 321.980469 412.433594 323.796875 409.90625 C 324.097656 409.484375 324.367188 409.042969 324.605469 408.597656 C 325.914062 406.328125 326.644531 403.738281 326.644531 401.015625 C 326.644531 397.824219 325.609375 394.78125 323.796875 392.210938 L 323.753906 392.152344 L 323.796875 392.125 C 321.984375 389.601562 319.417969 387.632812 316.328125 386.574219 C 303.859375 382.289062 293.484375 376 285.226562 367.714844 C 276.910156 359.367188 270.542969 348.855469 266.144531 336.203125 C 265.074219 333.152344 263.113281 330.609375 260.578125 328.804688 L 260.589844 328.785156 C 258.027344 326.960938 254.960938 325.941406 251.75 325.941406 C 248.496094 325.941406 245.449219 326.980469 242.90625 328.792969 L 242.878906 328.8125 L 242.863281 328.792969 C 240.328125 330.609375 238.375 333.179688 237.316406 336.257812 L 237.164062 336.746094 C 232.894531 349.039062 226.640625 359.292969 218.410156 367.496094 C 210.023438 375.851562 199.488281 382.234375 186.816406 386.621094 L 186.800781 386.582031 C 183.722656 387.636719 181.152344 389.621094 179.335938 392.175781 C 177.515625 394.738281 176.492188 397.804688 176.492188 401.015625 C 176.492188 404.25 177.527344 407.3125 179.339844 409.855469 C 181.164062 412.414062 183.734375 414.394531 186.800781 415.449219 C 187.089844 415.546875 187.375 415.632812 187.660156 415.707031 C 199.5625 419.949219 209.558594 425.96875 217.625 433.769531 C 216.984375 443.589844 216.070312 454.402344 214.792969 467.800781 C 213.335938 483.074219 211.25 503.050781 208.4375 529.664062 L 208.410156 529.996094 C 203.003906 573.304688 197.980469 621.21875 192.96875 669.050781 C 187.480469 721.460938 182 773.773438 176.160156 818.863281 C 150.476562 819.03125 126.570312 816.238281 103.988281 810.507812 C 81.253906 804.742188 59.835938 795.96875 39.253906 784.210938 C 55.609375 700.695312 69.601562 622.636719 81.234375 550.046875 C 94.898438 464.765625 105.300781 387.03125 112.4375 316.863281 C 114.6875 316.417969 116.789062 315.511719 118.640625 314.199219 C 119.003906 313.9375 119.347656 313.660156 119.671875 313.371094 C 121.871094 311.523438 123.578125 309.097656 124.5625 306.277344 C 130.28125 289.820312 138.578125 276.140625 149.429688 265.25 C 160.21875 254.421875 173.734375 246.210938 189.960938 240.636719 C 193.234375 239.511719 195.972656 237.414062 197.921875 234.679688 C 199.859375 231.964844 200.953125 228.707031 200.953125 225.25 C 200.953125 221.804688 199.863281 218.53125 197.921875 215.816406 C 195.988281 213.113281 193.253906 211.003906 189.960938 209.871094 L 189.960938 209.855469 C 174.824219 204.660156 162.042969 197.164062 151.636719 187.386719 Z M 91.191406 299.152344 C 85.777344 285.976562 78.429688 274.765625 69.15625 265.519531 C 58.316406 254.71875 44.746094 246.460938 28.46875 240.753906 L 27.953125 240.585938 C 24.675781 239.445312 21.949219 237.359375 20.039062 234.671875 C 18.105469 231.960938 17.011719 228.691406 17.011719 225.25 C 17.011719 221.808594 18.09375 218.546875 20.039062 215.820312 C 21.980469 213.089844 24.722656 210.992188 27.996094 209.867188 L 28.007812 209.90625 C 44.496094 204.195312 58.21875 195.882812 69.15625 184.976562 C 79.9375 174.230469 88.117188 160.816406 93.683594 144.75 L 93.832031 144.273438 C 94.953125 141.007812 97.046875 138.269531 99.785156 136.3125 L 99.792969 136.324219 C 102.46875 134.417969 105.734375 133.328125 109.210938 133.320312 L 109.210938 133.273438 C 112.644531 133.273438 115.910156 134.359375 118.640625 136.300781 L 118.625 136.320312 C 121.335938 138.246094 123.425781 140.960938 124.5625 144.21875 C 127.773438 153.457031 131.796875 161.820312 136.625 169.308594 L 300.609375 86.179688 L 334.769531 11.546875 C 335.414062 7.417969 338.304688 3.796875 342.546875 2.417969 C 343.601562 2.074219 344.671875 1.894531 345.730469 1.859375 C 346 1.839844 346.273438 1.832031 346.546875 1.832031 L 592.5625 1.832031 L 592.5625 1.851562 C 593.738281 1.851562 594.933594 2.035156 596.109375 2.417969 C 599.496094 3.515625 602.023438 6.050781 603.230469 9.128906 L 638.5 86.179688 L 833.800781 185.179688 C 837.347656 186.976562 839.863281 190.570312 840.078125 194.824219 C 848.460938 358.183594 880.589844 576.738281 936.453125 850.472656 L 936.445312 850.472656 C 937.363281 854.976562 935.492188 859.789062 931.386719 862.40625 C 908.324219 877.082031 882.648438 887.910156 854.375 894.871094 C 826.523438 901.734375 796.082031 904.867188 763.066406 904.265625 C 757.5 904.464844 752.460938 900.566406 751.410156 894.921875 C 748.167969 877.792969 745.082031 857.820312 742.101562 835.890625 C 741.042969 834.089844 740.46875 831.984375 740.535156 829.746094 C 740.566406 828.835938 740.703125 827.957031 740.925781 827.113281 C 734.789062 780.535156 729.074219 726.003906 723.355469 671.382812 L 721.09375 649.835938 C 720.71875 664.113281 720.511719 678.3125 720.453125 692.335938 C 720.179688 759.824219 723.332031 823.441406 727.894531 872.828125 C 728.566406 876.96875 726.933594 881.328125 723.304688 883.953125 C 695.652344 904.042969 658.53125 918.816406 616.058594 928.464844 C 571.660156 938.550781 521.203125 943.0625 469.558594 942.226562 C 417.910156 943.0625 367.453125 938.550781 323.054688 928.464844 C 280.578125 918.816406 243.457031 904.042969 215.804688 883.953125 L 215.820312 883.933594 C 212.667969 881.644531 210.761719 877.796875 211.140625 873.636719 C 215.742188 824.140625 218.933594 760.191406 218.65625 692.335938 C 218.597656 678.320312 218.394531 664.128906 218.015625 649.859375 L 215.757812 671.382812 C 206.917969 755.777344 198.09375 839.949219 187.703125 894.921875 L 187.691406 894.921875 C 186.71875 900.136719 182.1875 904.144531 176.667969 904.253906 C 143.414062 904.90625 112.761719 901.777344 84.734375 894.871094 C 56.65625 887.957031 31.140625 877.230469 8.207031 862.710938 C 4.023438 860.328125 1.640625 855.445312 2.65625 850.472656 C 6.960938 829.386719 11.121094 808.636719 15.140625 788.210938 C 15.191406 787.902344 15.25 787.589844 15.324219 787.285156 C 32.265625 701.175781 46.703125 620.894531 58.628906 546.460938 C 73.238281 455.296875 84.09375 372.851562 91.191406 299.152344 Z M 292.132812 401.015625 C 283.460938 396.359375 275.742188 390.640625 268.992188 383.863281 C 262.222656 377.066406 256.484375 369.257812 251.78125 360.433594 C 247.101562 369.179688 241.359375 376.945312 234.554688 383.730469 C 227.734375 390.53125 219.871094 396.292969 210.96875 401.015625 C 219.867188 405.742188 227.730469 411.503906 234.554688 418.304688 C 235.589844 419.335938 236.601562 420.390625 237.589844 421.472656 L 238.101562 422.035156 C 243.382812 427.890625 247.945312 434.414062 251.78125 441.597656 C 256.488281 432.769531 262.222656 424.960938 268.992188 418.167969 C 275.742188 411.390625 283.460938 405.675781 292.132812 401.015625 Z M 469.105469 203.972656 C 462.753906 203.972656 457.601562 209.125 457.601562 215.476562 C 457.601562 221.828125 462.753906 226.980469 469.105469 226.980469 C 475.457031 226.980469 480.609375 221.828125 480.609375 215.476562 C 480.609375 209.125 475.457031 203.972656 469.105469 203.972656 Z M 469.105469 301.945312 C 462.753906 301.945312 457.601562 307.097656 457.601562 313.449219 C 457.601562 319.800781 462.753906 324.953125 469.105469 324.953125 C 475.457031 324.953125 480.609375 319.800781 480.609375 313.449219 C 480.609375 307.097656 475.457031 301.945312 469.105469 301.945312 Z M 469.105469 399.917969 C 462.753906 399.917969 457.601562 405.070312 457.601562 411.421875 C 457.601562 417.773438 462.753906 422.925781 469.105469 422.925781 C 475.457031 422.925781 480.609375 417.773438 480.609375 411.421875 C 480.609375 405.070312 475.457031 399.917969 469.105469 399.917969 Z M 469.105469 497.894531 C 462.753906 497.894531 457.601562 503.046875 457.601562 509.398438 C 457.601562 515.746094 462.753906 520.902344 469.105469 520.902344 C 475.457031 520.902344 480.609375 515.746094 480.609375 509.398438 C 480.609375 503.046875 475.457031 497.894531 469.105469 497.894531 Z M 469.105469 595.867188 C 462.753906 595.867188 457.601562 601.019531 457.601562 607.371094 C 457.601562 613.722656 462.753906 618.875 469.105469 618.875 C 475.457031 618.875 480.609375 613.722656 480.609375 607.371094 C 480.609375 601.019531 475.457031 595.867188 469.105469 595.867188 Z M 469.105469 693.839844 C 462.753906 693.839844 457.601562 698.992188 457.601562 705.34375 C 457.601562 711.695312 462.753906 716.847656 469.105469 716.847656 C 475.457031 716.847656 480.609375 711.695312 480.609375 705.34375 C 480.609375 698.992188 475.457031 693.839844 469.105469 693.839844 Z M 469.105469 791.8125 C 462.753906 791.8125 457.601562 796.964844 457.601562 803.316406 C 457.601562 809.667969 462.753906 814.820312 469.105469 814.820312 C 475.457031 814.820312 480.609375 809.667969 480.609375 803.316406 C 480.609375 796.964844 475.457031 791.8125 469.105469 791.8125 Z M 571.800781 391.359375 L 657.589844 391.359375 L 657.589844 375.574219 L 571.800781 375.574219 Z M 657.589844 414.328125 L 571.800781 414.328125 L 571.800781 457.101562 L 614.699219 474.941406 L 657.589844 457.105469 Z M 680.554688 369.601562 C 680.554688 364.703125 678.378906 360.308594 674.878906 357.1875 C 671.707031 354.355469 667.453125 352.605469 662.886719 352.605469 L 566.503906 352.605469 C 561.933594 352.605469 557.679688 354.359375 554.511719 357.1875 C 551.011719 360.308594 548.832031 364.703125 548.832031 369.601562 L 548.832031 461.234375 C 548.832031 464.710938 549.9375 468.015625 551.949219 470.832031 L 551.9375 470.839844 C 553.789062 473.4375 556.367188 475.511719 559.492188 476.8125 L 607.6875 496.851562 C 609.976562 497.808594 612.335938 498.285156 614.695312 498.285156 C 617.042969 498.285156 619.402344 497.8125 621.707031 496.851562 L 669.894531 476.816406 C 673.019531 475.515625 675.597656 473.445312 677.449219 470.84375 C 677.632812 470.589844 677.800781 470.332031 677.960938 470.066406 C 679.640625 467.421875 680.554688 464.398438 680.554688 461.238281 Z M 904.429688 807.382812 C 883.824219 818.550781 862.410156 827.015625 839.78125 832.753906 C 816.617188 838.628906 792.175781 841.628906 766.035156 841.757812 C 768.050781 856.042969 770.117188 869.371094 772.242188 881.453125 C 799.824219 881.363281 825.382812 878.421875 848.898438 872.625 C 872.089844 866.917969 893.265625 858.433594 912.425781 847.191406 C 909.703125 833.785156 907.039062 820.519531 904.429688 807.382812 Z M 762.949219 818.871094 C 788.292969 818.960938 811.902344 816.167969 834.222656 810.507812 C 857.257812 804.664062 878.933594 795.734375 899.769531 783.742188 C 853.117188 545.433594 825.714844 351.71875 817.554688 202.628906 L 635.433594 110.3125 L 572.910156 254.988281 C 572.515625 256.019531 571.960938 257.011719 571.246094 257.929688 C 567.359375 262.90625 560.164062 263.792969 555.1875 259.90625 L 518.394531 231.21875 L 518.394531 918.476562 C 551.003906 916.734375 582.363281 912.640625 611.03125 906.128906 C 647.816406 897.773438 680.046875 885.453125 704.582031 869.050781 C 700.25 819.941406 697.308594 757.898438 697.578125 692.246094 C 697.8125 635.417969 700.433594 575.972656 706.617188 519.960938 C 702.835938 484.039062 700.53125 461.136719 699.183594 443.328125 C 697.664062 423.246094 697.25 408.542969 697.234375 388.109375 C 697.234375 381.796875 702.359375 376.671875 708.675781 376.671875 C 714.988281 376.671875 720.113281 381.796875 720.113281 388.109375 C 720.125 407.363281 720.535156 421.527344 722.058594 441.621094 C 723.609375 462.074219 726.230469 487.636719 730.671875 529.664062 L 730.703125 529.988281 C 736.113281 573.304688 741.132812 621.214844 746.140625 669.050781 C 751.628906 721.460938 757.109375 773.777344 762.949219 818.871094 Z M 442.78125 214.015625 L 469.554688 193.140625 L 495.425781 213.3125 L 495.425781 919.308594 C 486.917969 919.472656 478.34375 919.488281 469.738281 919.347656 L 469.378906 919.347656 C 460.464844 919.492188 451.589844 919.472656 442.78125 919.292969 Z M 513.128906 198.101562 C 513.707031 198.476562 514.25 198.898438 514.75 199.367188 L 557.601562 232.777344 L 617.253906 94.746094 L 593.660156 43.199219 C 583.296875 67.917969 570.222656 90.882812 554.441406 112.089844 C 536.082031 136.769531 514.078125 159.027344 488.449219 178.859375 Z M 469.328125 164.292969 C 443.347656 144.851562 421.25 122.90625 403.058594 98.460938 C 399.332031 93.457031 395.777344 88.34375 392.375 83.125 L 546.285156 83.125 C 542.886719 88.34375 539.320312 93.453125 535.597656 98.457031 C 517.410156 122.902344 495.3125 144.851562 469.328125 164.292969 Z M 559.835938 60.15625 L 378.816406 60.15625 C 372.785156 48.824219 367.433594 37.035156 362.761719 24.800781 L 575.894531 24.800781 C 571.222656 37.039062 565.867188 48.824219 559.835938 60.15625 Z M 173.070312 841.765625 C 146.589844 841.703125 121.855469 838.699219 98.425781 832.753906 C 76.101562 827.089844 54.949219 818.777344 34.597656 807.824219 C 32.015625 820.816406 29.378906 833.941406 26.6875 847.191406 C 45.84375 858.429688 67.023438 866.917969 90.207031 872.625 C 113.726562 878.421875 139.285156 881.363281 166.871094 881.453125 C 168.996094 869.371094 171.058594 856.050781 173.070312 841.765625 Z M 173.070312 841.765625 " fill-opacity="1" fill-rule="evenodd"/></g></g></g></svg>