<svg xmlns="http://www.w3.org/2000/svg" xmlns:xlink="http://www.w3.org/1999/xlink" width="1512" zoomAndPan="magnify" viewBox="0 0 1134 1133.999944" height="1512" preserveAspectRatio="xMidYMid meet" version="1.0"><defs><clipPath id="88fb41216c"><path d="M 3 0.359375 L 903.558594 0.359375 L 903.558594 898 L 3 898 Z M 3 0.359375 " clip-rule="nonzero"/></clipPath><clipPath id="e733d8bea3"><rect x="0" width="904" y="0" height="899"/></clipPath></defs><g transform="matrix(1, 0, 0, 1, 115, 117)"><g clip-path="url(#e733d8bea3)"><g clip-path="url(#88fb41216c)"><path fill="#3a5635" d="M 898.976562 592.796875 L 836.503906 530.34375 L 836.457031 530.386719 C 833.847656 527.777344 830.269531 526.132812 826.308594 526.042969 L 673.988281 522.261719 C 673.96875 522.261719 673.96875 522.261719 673.945312 522.261719 C 666.675781 513.777344 658.957031 505.382812 650.605469 497.058594 L 567.765625 414.214844 L 876.539062 254.875 C 877.914062 254.179688 879.195312 253.234375 880.320312 252.085938 C 886.082031 246.234375 886.015625 236.804688 880.140625 231.042969 L 797.882812 150.113281 C 794.867188 146.691406 790.296875 144.6875 785.414062 145.117188 L 720.464844 150.808594 L 673.71875 104.066406 C 663.90625 94.253906 650.96875 89.324219 638.046875 89.324219 C 625.128906 89.324219 612.191406 94.253906 602.378906 104.066406 C 592.566406 113.878906 587.636719 126.820312 587.636719 139.738281 C 587.636719 147.390625 589.570312 154.953125 593.015625 161.972656 L 546.472656 166.046875 L 499.707031 119.300781 C 489.894531 109.488281 476.953125 104.5625 464.035156 104.5625 C 451.164062 104.5625 438.246094 109.488281 428.433594 119.300781 L 427.488281 120.269531 C 418.261719 129.96875 413.644531 142.484375 413.644531 154.972656 C 413.644531 162.625 415.605469 170.1875 419.046875 177.210938 L 338.75 184.230469 C 338.5 184.253906 338.296875 184.410156 338.027344 184.433594 L 252.101562 98.507812 C 218.636719 65.042969 187.015625 38.171875 150.242188 20.953125 C 112.949219 3.488281 71.246094 -3.667969 18.472656 2.8125 C 11.429688 3.667969 6.140625 9.316406 5.441406 16.09375 C -0.972656 68.734375 6.183594 110.34375 23.625 147.570312 C 40.84375 184.34375 67.714844 215.964844 101.15625 249.40625 L 186.296875 334.546875 C 186.003906 335.511719 185.53125 336.414062 185.441406 337.449219 L 178.417969 417.726562 C 171.417969 414.28125 163.835938 412.347656 156.183594 412.347656 C 143.265625 412.347656 130.324219 417.253906 120.511719 427.085938 L 120.511719 427.15625 C 110.699219 436.96875 105.769531 449.886719 105.769531 462.78125 C 105.769531 475.273438 110.382812 487.785156 119.613281 497.484375 L 120.511719 498.453125 L 167.257812 545.195312 L 163.183594 591.738281 C 156.183594 588.292969 148.597656 586.359375 140.945312 586.359375 C 128.027344 586.359375 115.089844 591.289062 105.277344 601.101562 C 95.464844 610.914062 90.535156 623.851562 90.535156 636.769531 C 90.535156 649.691406 95.441406 662.628906 105.277344 672.441406 L 152.019531 719.1875 L 146.324219 784.136719 C 145.898438 789.019531 147.902344 793.589844 151.320312 796.605469 L 232.253906 878.90625 C 238.011719 884.757812 247.441406 884.847656 253.292969 879.089844 C 254.464844 877.941406 255.386719 876.65625 256.085938 875.308594 L 416.371094 564.664062 L 499.664062 647.957031 C 509.226562 657.523438 518.882812 666.140625 528.648438 674.289062 L 532.273438 820.011719 C 532.363281 823.996094 534.003906 827.574219 536.617188 830.160156 L 536.570312 830.207031 L 599.046875 892.660156 C 604.875 898.488281 614.328125 898.488281 620.132812 892.660156 C 622.632812 890.160156 624.050781 887.011719 624.410156 883.769531 L 654.703125 733.230469 C 675.789062 736.066406 698.316406 736.15625 722.78125 733.164062 C 729.824219 732.308594 735.113281 726.660156 735.8125 719.882812 C 738.917969 694.40625 738.601562 671.09375 735.40625 649.285156 L 890.019531 618.160156 C 893.261719 617.800781 896.433594 616.382812 898.910156 613.882812 C 904.804688 608.054688 904.804688 598.601562 898.976562 592.796875 Z M 627.988281 158.890625 L 623.464844 154.296875 C 619.480469 150.316406 617.480469 145.027344 617.480469 139.714844 C 617.480469 134.425781 619.480469 129.136719 623.464844 125.132812 C 627.449219 121.148438 632.761719 119.144531 638.046875 119.144531 C 643.335938 119.144531 648.625 121.148438 652.632812 125.132812 L 681.6875 154.1875 L 631.433594 158.574219 Z M 453.976562 174.101562 L 449.453125 169.578125 C 445.46875 165.597656 443.464844 160.285156 443.464844 154.953125 C 443.464844 149.886719 445.265625 144.847656 448.867188 140.953125 L 449.429688 140.34375 C 453.414062 136.382812 458.726562 134.382812 464.035156 134.382812 C 469.324219 134.382812 474.613281 136.382812 478.621094 140.367188 L 507.675781 169.421875 L 458.363281 173.742188 Z M 449.675781 204.441406 L 542.109375 196.363281 C 542.109375 196.363281 542.109375 196.363281 542.128906 196.363281 L 623.691406 189.226562 C 623.691406 189.226562 623.691406 189.226562 623.710938 189.226562 L 716.121094 181.148438 C 716.121094 181.148438 716.121094 181.148438 716.144531 181.148438 L 781.207031 175.453125 L 844.671875 237.863281 L 545.707031 392.136719 L 365.417969 211.84375 Z M 141.039062 476.78125 C 137.457031 472.863281 135.636719 467.824219 135.636719 462.78125 C 135.636719 457.46875 137.640625 452.160156 141.621094 448.199219 C 145.605469 444.214844 150.917969 442.210938 156.207031 442.210938 C 161.515625 442.210938 166.785156 444.214844 170.789062 448.199219 L 175.378906 452.722656 L 173.558594 473.472656 L 170.675781 506.375 Z M 126.410156 651.355469 C 122.425781 647.371094 120.421875 642.082031 120.421875 636.769531 C 120.421875 631.484375 122.425781 626.195312 126.410156 622.1875 C 130.390625 618.203125 135.703125 616.203125 140.992188 616.203125 C 146.28125 616.203125 151.570312 618.203125 155.574219 622.1875 L 160.167969 626.777344 L 157.78125 654.101562 L 155.484375 680.410156 Z M 239.09375 843.394531 L 176.6875 779.929688 L 182.378906 714.867188 C 182.378906 714.867188 182.378906 714.867188 182.378906 714.84375 L 185.351562 680.769531 L 197.59375 540.851562 L 197.886719 537.386719 L 213.28125 361.550781 L 394.3125 542.5625 Z M 600.554688 851.945312 L 561.890625 813.28125 L 558.988281 696.613281 C 571.859375 704.984375 585.003906 712.503906 598.910156 718.265625 C 607.578125 721.863281 616.464844 724.878906 625.625 727.378906 Z M 707.433594 704.761719 C 670.546875 707.730469 638.972656 702.621094 610.34375 690.761719 C 578.363281 677.507812 549.535156 655.585938 520.796875 626.847656 L 122.269531 228.320312 C 90.871094 196.925781 65.890625 167.6875 50.566406 134.964844 C 36.769531 105.507812 30.46875 72.445312 33.867188 31.195312 C 75.117188 27.773438 108.179688 34.074219 137.640625 47.871094 C 170.363281 63.195312 199.597656 88.199219 230.96875 119.574219 L 629.519531 518.121094 C 658.234375 546.839844 680.15625 575.691406 693.433594 607.671875 C 705.296875 636.300781 710.402344 667.875 707.433594 704.761719 Z M 729.21875 620.230469 C 726.878906 612.058594 724.175781 604.046875 720.9375 596.261719 C 714.613281 581.003906 706.308594 566.597656 696.855469 552.554688 L 819.578125 555.59375 L 858.242188 594.257812 Z M 729.21875 620.230469 " fill-opacity="1" fill-rule="nonzero"/></g></g></g></svg>