<svg xmlns="http://www.w3.org/2000/svg" xmlns:xlink="http://www.w3.org/1999/xlink" width="1512" zoomAndPan="magnify" viewBox="0 0 1134 1133.999944" height="1512" preserveAspectRatio="xMidYMid meet" version="1.0"><defs><clipPath id="fd78f2a0c2"><rect x="0" width="916" y="0" height="790"/></clipPath></defs><g transform="matrix(1, 0, 0, 1, 115, 148)"><g clip-path="url(#fd78f2a0c2)"><path fill="#3a5635" d="M 909.972656 752.105469 L 485.292969 122.335938 L 541.316406 39.265625 C 548.398438 28.964844 545.503906 14.796875 535.199219 8.035156 C 524.894531 0.953125 510.730469 3.847656 503.96875 14.152344 L 458.25 81.765625 L 412.527344 13.832031 C 405.445312 3.527344 391.601562 0.628906 381.296875 7.714844 C 370.996094 14.796875 368.097656 28.640625 375.179688 38.945312 L 431.203125 122.011719 L 6.527344 752.105469 C -0.558594 762.410156 2.339844 776.574219 12.644531 783.335938 C 22.945312 790.417969 37.113281 787.523438 43.875 777.21875 L 96.355469 699.300781 L 96.355469 764.664062 C 96.355469 777.21875 106.335938 787.199219 118.894531 787.199219 L 797.28125 787.199219 C 809.839844 787.199219 819.820312 777.21875 819.820312 764.664062 L 819.820312 699.300781 L 872.300781 777.21875 C 876.808594 783.660156 883.890625 787.199219 890.976562 787.199219 C 895.160156 787.199219 899.667969 785.914062 903.53125 783.335938 C 914.480469 776.253906 917.054688 762.410156 909.972656 752.105469 Z M 348.136719 742.125 L 458.25 550.875 L 568.363281 742.125 Z M 775.066406 742.125 L 620.519531 742.125 L 477.886719 494.53125 C 474.023438 487.445312 466.296875 483.261719 458.25 483.261719 C 450.199219 483.261719 442.792969 487.445312 438.609375 494.53125 L 295.976562 742.125 L 141.429688 742.125 L 141.429688 632.332031 L 458.25 162.582031 L 775.066406 632.332031 Z M 775.066406 742.125 " fill-opacity="1" fill-rule="nonzero"/></g></g></svg>