<svg xmlns="http://www.w3.org/2000/svg" xmlns:xlink="http://www.w3.org/1999/xlink" width="1512" zoomAndPan="magnify" viewBox="0 0 1134 1133.999944" height="1512" preserveAspectRatio="xMidYMid meet" version="1.0"><defs><clipPath id="24369b16fe"><path d="M 0 0 L 1134 0 L 1134 1134 L 0 1134 Z M 0 0 " clip-rule="nonzero"/></clipPath><clipPath id="0a0f19c370"><rect x="0" width="1134" y="0" height="1134"/></clipPath></defs><rect x="-113.4" width="1360.8" fill="#ffffff" y="-113.399994" height="1360.799933" fill-opacity="1"/><g transform="matrix(1, 0, 0, 1, 0, -0.000000000000248856)"><g clip-path="url(#0a0f19c370)"><g clip-path="url(#24369b16fe)"><rect x="-249.48" width="1632.96" fill="#ffffff" height="1632.95992" y="-249.479988" fill-opacity="1"/></g><path fill="#3a5635" d="M 627.582031 775.664062 C 627.496094 775.703125 627.414062 775.738281 627.328125 775.773438 C 617.15625 723.828125 602.75 655.550781 588.4375 589.265625 C 628.359375 581.121094 655.761719 606.695312 655.761719 606.695312 C 723.957031 673.847656 678.277344 734.03125 653.703125 758.132812 C 646.152344 765.539062 637.292969 771.476562 627.582031 775.664062 Z M 445.496094 738.507812 C 378.433594 636.363281 457.113281 537.484375 519.9375 485.128906 C 525.304688 480.660156 530.734375 475.769531 536.175781 470.492188 L 548.867188 521.945312 C 548.867188 521.945312 549.332031 524.089844 549.328125 524.089844 C 457.09375 559.320312 453.679688 738.4375 571.988281 721.210938 C 571.988281 721.203125 571.988281 721.210938 571.988281 721.203125 C 527.734375 702.476562 520.492188 674.527344 523.433594 652.441406 C 526.03125 632.9375 537.09375 615.605469 553.390625 604.582031 C 557.40625 601.867188 561.359375 599.535156 565.230469 597.550781 L 576.097656 647.738281 C 576.097656 647.738281 593.296875 712.472656 606.121094 783.707031 C 563.238281 797.453125 490.542969 807.117188 445.496094 738.507812 Z M 575.289062 159.757812 C 586.335938 156.492188 598.246094 160.070312 605.828125 168.738281 C 664.273438 235.609375 538.078125 356.597656 537.273438 357.363281 L 537.273438 357.367188 C 537.273438 357.367188 498.195312 182.601562 575.289062 159.757812 Z M 736.183594 625.625 C 736.183594 625.625 716.132812 531.066406 608.125 518.109375 C 595.160156 516.554688 583.476562 516.6875 572.957031 518.125 C 567.429688 492.878906 562.167969 469.058594 557.472656 447.878906 C 608.039062 389.296875 653.167969 300.253906 646.613281 207.078125 C 640.839844 125.078125 609.3125 94.550781 591.308594 83.699219 C 584.085938 79.34375 575.351562 78.3125 567.292969 80.789062 C 459.15625 114.121094 501.738281 330.851562 501.738281 330.851562 L 514.800781 383.824219 C 503.589844 394.167969 487.582031 408.382812 464.898438 427.875 C 368.972656 510.28125 365.472656 602.429688 373.507812 653.886719 C 381.546875 705.34375 439.144531 858.113281 605.976562 818.859375 C 607.925781 818.398438 609.847656 817.925781 611.738281 817.433594 C 611.441406 817.511719 618.109375 861.84375 618.558594 866.125 C 620.371094 883.347656 621.222656 900.773438 619.589844 918.054688 C 616.746094 948.019531 605.214844 977.089844 575.230469 988.789062 C 557.039062 995.882812 535.777344 994.535156 518.515625 985.433594 C 534.324219 986.429688 549.96875 977.738281 558.941406 964.679688 C 567.914062 951.628906 570.550781 934.800781 567.78125 919.210938 C 564.988281 903.484375 556.59375 888.46875 543.5 879.324219 C 529.460938 869.515625 511.132812 867.148438 494.296875 870.261719 C 477.898438 873.292969 462.023438 881.683594 452.445312 895.335938 C 445.085938 905.828125 441.824219 918.835938 441.691406 931.65625 C 441.488281 951.378906 448.605469 971.089844 461.359375 986.140625 C 477.574219 1005.261719 501.460938 1014.757812 526.03125 1016.761719 C 567.359375 1020.148438 623.261719 1000.636719 638.441406 958.496094 C 644.746094 940.992188 645.75 921.925781 645.320312 903.488281 C 644.875 884.515625 642.625 865.613281 640.003906 846.828125 C 638.734375 837.726562 636.652344 825.390625 633.945312 810.574219 C 768.527344 761.621094 736.183594 625.625 736.183594 625.625 " fill-opacity="1" fill-rule="nonzero"/></g></g></svg>